<!DOCTYPE svg PUBLIC "-//W3C//DTD SVG 1.1//EN" "http://www.w3.org/Graphics/SVG/1.1/DTD/svg11.dtd">
<!-- Uploaded to: SVG Repo, www.svgrepo.com, Transformed by: SVG Repo Mixer Tools -->
<svg width="152px" height="152px" viewBox="-3.2 -3.2 38.40 38.40" fill="none" xmlns="http://www.w3.org/2000/svg" stroke="#000000">
<g id="SVGRepo_bgCarrier" stroke-width="0" transform="translate(0,0), scale(1)"/>
<g id="SVGRepo_tracerCarrier" stroke-linecap="round" stroke-linejoin="round" stroke="#CCCCCC" stroke-width="1.088"/>
<g id="SVGRepo_iconCarrier"> <g clip-path="url(#clip0_901_1464)"> <path d="M17 11.0009V21.0009C17 22.1049 17.896 23.0009 19 23.0009H21C22.104 23.0009 23 22.1049 23 21.0009V11.0009C23 9.89687 22.104 9.00087 21 9.00087H19C17.896 9.00087 17 9.89687 17 11.0009ZM17 11.0009C17 9.89687 16.104 9.00087 15 9.00087H13C11.896 9.00087 11 9.89687 11 11.0009V14.0009M9.6191 6.98137L8.8731 2.64637C8.6831 1.56237 7.6571 0.838368 6.5801 1.03037L4.6311 1.37637C3.5541 1.56737 2.8361 2.60137 3.0241 3.68437L5.3571 17.0014M24.3701 7.01457L25.1201 2.64657C25.3081 1.56257 26.3351 0.838568 27.4111 1.03057L29.3591 1.37557C30.4351 1.56757 31.1521 2.60157 30.9641 3.68457L28.0001 20.0006V27.0006C28.0001 29.3336 26.3331 31.0006 24.0001 31.0006H9.0001C4.0001 31.0006 1.0001 28.9586 1.0001 23.0006V18.0006C1.0001 17.4486 1.4471 17.0006 2.0001 17.0006H16.0001C16.5311 17.0006 17.0001 17.4386 17.0001 18.0006V19.0006C17.0001 21.3446 15.3441 23.0006 13.0001 23.0006H7.0001" stroke="#000000" stroke-width="2" stroke-linecap="round" stroke-linejoin="round"/> </g> <defs> <clipPath id="clip0_901_1464"> <rect width="32" height="32" fill="white"/> </clipPath> </defs> </g>
</svg>